<svg width="204" height="53" viewBox="0 0 204 53" fill="none" xmlns="http://www.w3.org/2000/svg">
<path d="M47.6278 17.3107C46.7742 15.4198 45.6445 13.6576 44.273 12.0782C42.2458 9.67372 39.716 7.71243 36.8499 6.32339C33.9839 4.93438 30.8466 4.1491 27.6447 4.01924C24.4429 3.88939 21.2489 4.4179 18.273 5.57003C15.2972 6.72214 12.607 8.47173 10.3794 10.7036C8.15182 12.9355 6.43741 15.5991 5.34902 18.5192C4.26063 21.4391 3.8229 24.5494 4.06469 27.645C4.30649 30.7408 5.22227 33.7518 6.75181 36.4798C8.28135 39.208 10.39 41.5914 12.9388 43.4732C14.5743 44.7048 16.3815 45.7059 18.3065 46.4469C21.0055 47.5184 23.8942 48.0703 26.8111 48.0719C32.832 48.0591 38.602 45.734 42.8564 41.6065C47.1107 37.479 49.5022 31.8859 49.5065 26.0532C49.5109 23.0445 48.8713 20.0676 47.6278 17.3107ZM26.7943 8.4869C29.4137 8.48664 32.0015 9.04126 34.3762 10.1119C33.7972 10.3543 33.1883 10.5236 32.5646 10.6157C30.5125 10.9034 28.6114 11.8264 27.1452 13.2468C25.679 14.6672 24.7262 16.5089 24.4291 18.4969C24.2988 19.6118 23.7753 20.6491 22.9471 21.4336C22.119 22.2182 21.0369 22.7018 19.8833 22.8032C17.8312 23.091 15.9301 24.014 14.4639 25.4344C12.9977 26.8548 12.0449 28.6964 11.7479 30.6844C11.6473 31.7446 11.1804 32.7409 10.4227 33.5119C9.1154 30.836 8.52813 27.8831 8.71553 24.9282C8.90293 21.9733 9.85891 19.1123 11.4945 16.6114C13.1301 14.1107 15.3922 12.0514 18.0702 10.6252C20.7482 9.19895 23.7551 8.45221 26.8111 8.4544L26.7943 8.4869ZM12.922 37.4282C13.1233 37.2494 13.3246 37.0869 13.5259 36.8919C15.0182 35.4904 15.9761 33.6401 16.2433 31.6432C16.3517 30.5206 16.869 29.4722 17.7027 28.6857C18.505 27.8767 19.5847 27.3797 20.7388 27.2882C22.791 27.0004 24.692 26.0774 26.1582 24.657C27.6244 23.2366 28.5772 21.3949 28.8743 19.4069C28.9469 18.2329 29.4669 17.1267 30.3336 16.3032C31.1557 15.5099 32.2457 15.031 33.4033 14.9544C35.2886 14.7031 37.0468 13.8912 38.4356 12.6307C40.0169 13.9015 41.3565 15.4304 42.3943 17.1482C42.3305 17.2315 42.2574 17.3079 42.1762 17.3757C41.3756 18.1917 40.2972 18.6997 39.1401 18.8057C37.0858 19.0884 35.1819 20.0098 33.7147 21.431C32.2476 22.8524 31.2965 24.6968 31.0046 26.6869C30.8864 27.8056 30.3726 28.8503 29.5503 29.6439C28.7278 30.4377 27.6476 30.9316 26.4924 31.0419C24.4342 31.3274 22.5261 32.2486 21.0513 33.6684C19.5767 35.0883 18.614 36.9311 18.3065 38.9232C18.2163 39.7173 17.9347 40.4799 17.4846 41.1494C15.7636 40.1595 14.2222 38.9024 12.922 37.4282ZM26.7943 43.7007C25.0922 43.7025 23.3982 43.4727 21.762 43.0182C22.3218 42.0074 22.6856 40.9058 22.8356 39.7682C22.9532 38.652 23.4646 37.6092 24.2835 36.8159C25.1024 36.0225 26.1788 35.5271 27.3311 35.4132C29.3862 35.1286 31.2911 34.2071 32.7607 32.7864C34.2301 31.3658 35.1854 29.5222 35.4833 27.5319C35.6009 26.4157 36.1124 25.3729 36.9313 24.5796C37.7502 23.7863 38.8266 23.2908 39.9788 23.1769C41.5254 22.9821 42.9995 22.4242 44.273 21.5519C44.9802 24.1485 45.0639 26.8675 44.5179 29.5003C43.9719 32.1331 42.8105 34.6099 41.123 36.7405C39.4355 38.8708 37.2668 40.5987 34.7828 41.7911C32.2991 42.9836 29.5664 43.609 26.7943 43.6194V43.7007Z" fill="#E90808"/>
<path d="M55.8666 33.0359V19.0359H61.0066C62.1266 19.0359 63.0466 19.2293 63.7666 19.6159C64.4999 19.9893 65.0466 20.5026 65.4066 21.1559C65.7666 21.7959 65.9466 22.5093 65.9466 23.2959C65.9466 24.1493 65.7199 24.9293 65.2666 25.6359C64.8266 26.3426 64.1333 26.8559 63.1866 27.1759L66.0866 33.0359H63.1466L60.5466 27.5159H58.4266V33.0359H55.8666ZM58.4266 25.6359H60.8466C61.6999 25.6359 62.3266 25.4293 62.7266 25.0159C63.1266 24.6026 63.3266 24.0559 63.3266 23.3759C63.3266 22.7093 63.1266 22.1759 62.7266 21.7759C62.3399 21.3759 61.7066 21.1759 60.8266 21.1759H58.4266V25.6359ZM72.4821 33.2759C71.4821 33.2759 70.5954 33.0626 69.8221 32.6359C69.0487 32.2093 68.4421 31.6093 68.0021 30.8359C67.5621 30.0626 67.3421 29.1693 67.3421 28.1559C67.3421 27.1293 67.5554 26.2159 67.9821 25.4159C68.4221 24.6159 69.0221 23.9959 69.7821 23.5559C70.5554 23.1026 71.4621 22.8759 72.5021 22.8759C73.4754 22.8759 74.3354 23.0893 75.0821 23.5159C75.8287 23.9426 76.4087 24.5293 76.8221 25.2759C77.2487 26.0093 77.4621 26.8293 77.4621 27.7359C77.4621 27.8826 77.4554 28.0359 77.4421 28.1959C77.4421 28.3559 77.4354 28.5226 77.4221 28.6959H69.8821C69.9354 29.4693 70.2021 30.0759 70.6821 30.5159C71.1754 30.9559 71.7687 31.1759 72.4621 31.1759C72.9821 31.1759 73.4154 31.0626 73.7621 30.8359C74.1221 30.5959 74.3887 30.2893 74.5621 29.9159H77.1621C76.9754 30.5426 76.6621 31.1159 76.2221 31.6359C75.7954 32.1426 75.2621 32.5426 74.6221 32.8359C73.9954 33.1293 73.2821 33.2759 72.4821 33.2759ZM72.5021 24.9559C71.8754 24.9559 71.3221 25.1359 70.8421 25.4959C70.3621 25.8426 70.0554 26.3759 69.9221 27.0959H74.8621C74.8221 26.4426 74.5821 25.9226 74.1421 25.5359C73.7021 25.1493 73.1554 24.9559 72.5021 24.9559ZM83.0352 33.2759C82.1819 33.2759 81.4819 33.1426 80.9352 32.8759C80.3885 32.5959 79.9819 32.2293 79.7152 31.7759C79.4485 31.3226 79.3152 30.8226 79.3152 30.2759C79.3152 29.3559 79.6752 28.6093 80.3952 28.0359C81.1152 27.4626 82.1952 27.1759 83.6352 27.1759H86.1552V26.9359C86.1552 26.2559 85.9619 25.7559 85.5752 25.4359C85.1885 25.1159 84.7085 24.9559 84.1352 24.9559C83.6152 24.9559 83.1619 25.0826 82.7752 25.3359C82.3885 25.5759 82.1485 25.9359 82.0552 26.4159H79.5552C79.6219 25.6959 79.8619 25.0693 80.2752 24.5359C80.7019 24.0026 81.2485 23.5959 81.9152 23.3159C82.5819 23.0226 83.3285 22.8759 84.1552 22.8759C85.5685 22.8759 86.6819 23.2293 87.4952 23.9359C88.3085 24.6426 88.7152 25.6426 88.7152 26.9359V33.0359H86.5352L86.2952 31.4359C86.0019 31.9693 85.5885 32.4093 85.0552 32.7559C84.5352 33.1026 83.8619 33.2759 83.0352 33.2759ZM83.6152 31.2759C84.3485 31.2759 84.9152 31.0359 85.3152 30.5559C85.7285 30.0759 85.9885 29.4826 86.0952 28.7759H83.9152C83.2352 28.7759 82.7485 28.9026 82.4552 29.1559C82.1619 29.3959 82.0152 29.6959 82.0152 30.0559C82.0152 30.4426 82.1619 30.7426 82.4552 30.9559C82.7485 31.1693 83.1352 31.2759 83.6152 31.2759ZM91.1582 33.0359V18.6359H93.7182V33.0359H91.1582ZM101.16 33.0359V19.0359H110.3V21.0959H103.72V24.9359H109.7V26.9359H103.72V30.9759H110.3V33.0359H101.16ZM116.762 33.2759C115.882 33.2759 115.109 33.1359 114.442 32.8559C113.775 32.5626 113.242 32.1626 112.842 31.6559C112.442 31.1493 112.202 30.5626 112.122 29.8959H114.702C114.782 30.2826 114.995 30.6159 115.342 30.8959C115.702 31.1626 116.162 31.2959 116.722 31.2959C117.282 31.2959 117.689 31.1826 117.942 30.9559C118.209 30.7293 118.342 30.4693 118.342 30.1759C118.342 29.7493 118.155 29.4626 117.782 29.3159C117.409 29.1559 116.889 29.0026 116.222 28.8559C115.795 28.7626 115.362 28.6493 114.922 28.5159C114.482 28.3826 114.075 28.2159 113.702 28.0159C113.342 27.8026 113.049 27.5359 112.822 27.2159C112.595 26.8826 112.482 26.4759 112.482 25.9959C112.482 25.1159 112.829 24.3759 113.522 23.7759C114.229 23.1759 115.215 22.8759 116.482 22.8759C117.655 22.8759 118.589 23.1493 119.282 23.6959C119.989 24.2426 120.409 24.9959 120.542 25.9559H118.122C117.975 25.2226 117.422 24.8559 116.462 24.8559C115.982 24.8559 115.609 24.9493 115.342 25.1359C115.089 25.3226 114.962 25.5559 114.962 25.8359C114.962 26.1293 115.155 26.3626 115.542 26.5359C115.929 26.7093 116.442 26.8693 117.082 27.0159C117.775 27.1759 118.409 27.3559 118.982 27.5559C119.569 27.7426 120.035 28.0293 120.382 28.4159C120.729 28.7893 120.902 29.3293 120.902 30.0359C120.915 30.6493 120.755 31.2026 120.422 31.6959C120.089 32.1893 119.609 32.5759 118.982 32.8559C118.355 33.1359 117.615 33.2759 116.762 33.2759ZM127.277 33.0359C126.237 33.0359 125.404 32.7826 124.777 32.2759C124.151 31.7693 123.837 30.8693 123.837 29.5759V25.2559H122.137V23.1159H123.837L124.137 20.4559H126.397V23.1159H129.077V25.2559H126.397V29.5959C126.397 30.0759 126.497 30.4093 126.697 30.5959C126.911 30.7693 127.271 30.8559 127.777 30.8559H129.017V33.0359H127.277ZM134.695 33.2759C133.842 33.2759 133.142 33.1426 132.595 32.8759C132.049 32.5959 131.642 32.2293 131.375 31.7759C131.109 31.3226 130.975 30.8226 130.975 30.2759C130.975 29.3559 131.335 28.6093 132.055 28.0359C132.775 27.4626 133.855 27.1759 135.295 27.1759H137.815V26.9359C137.815 26.2559 137.622 25.7559 137.235 25.4359C136.849 25.1159 136.369 24.9559 135.795 24.9559C135.275 24.9559 134.822 25.0826 134.435 25.3359C134.049 25.5759 133.809 25.9359 133.715 26.4159H131.215C131.282 25.6959 131.522 25.0693 131.935 24.5359C132.362 24.0026 132.909 23.5959 133.575 23.3159C134.242 23.0226 134.989 22.8759 135.815 22.8759C137.229 22.8759 138.342 23.2293 139.155 23.9359C139.969 24.6426 140.375 25.6426 140.375 26.9359V33.0359H138.195L137.955 31.4359C137.662 31.9693 137.249 32.4093 136.715 32.7559C136.195 33.1026 135.522 33.2759 134.695 33.2759ZM135.275 31.2759C136.009 31.2759 136.575 31.0359 136.975 30.5559C137.389 30.0759 137.649 29.4826 137.755 28.7759H135.575C134.895 28.7759 134.409 28.9026 134.115 29.1559C133.822 29.3959 133.675 29.6959 133.675 30.0559C133.675 30.4426 133.822 30.7426 134.115 30.9559C134.409 31.1693 134.795 31.2759 135.275 31.2759ZM147.102 33.0359C146.062 33.0359 145.228 32.7826 144.602 32.2759C143.975 31.7693 143.662 30.8693 143.662 29.5759V25.2559H141.962V23.1159H143.662L143.962 20.4559H146.222V23.1159H148.902V25.2559H146.222V29.5959C146.222 30.0759 146.322 30.4093 146.522 30.5959C146.735 30.7693 147.095 30.8559 147.602 30.8559H148.842V33.0359H147.102ZM155.666 33.2759C154.666 33.2759 153.779 33.0626 153.006 32.6359C152.232 32.2093 151.626 31.6093 151.186 30.8359C150.746 30.0626 150.526 29.1693 150.526 28.1559C150.526 27.1293 150.739 26.2159 151.166 25.4159C151.606 24.6159 152.206 23.9959 152.966 23.5559C153.739 23.1026 154.646 22.8759 155.686 22.8759C156.659 22.8759 157.519 23.0893 158.266 23.5159C159.012 23.9426 159.592 24.5293 160.006 25.2759C160.432 26.0093 160.646 26.8293 160.646 27.7359C160.646 27.8826 160.639 28.0359 160.626 28.1959C160.626 28.3559 160.619 28.5226 160.606 28.6959H153.066C153.119 29.4693 153.386 30.0759 153.866 30.5159C154.359 30.9559 154.952 31.1759 155.646 31.1759C156.166 31.1759 156.599 31.0626 156.946 30.8359C157.306 30.5959 157.572 30.2893 157.746 29.9159H160.346C160.159 30.5426 159.846 31.1159 159.406 31.6359C158.979 32.1426 158.446 32.5426 157.806 32.8359C157.179 33.1293 156.466 33.2759 155.666 33.2759ZM155.686 24.9559C155.059 24.9559 154.506 25.1359 154.026 25.4959C153.546 25.8426 153.239 26.3759 153.106 27.0959H158.046C158.006 26.4426 157.766 25.9226 157.326 25.5359C156.886 25.1493 156.339 24.9559 155.686 24.9559ZM173.744 33.2759C172.424 33.2759 171.271 32.9759 170.284 32.3759C169.298 31.7759 168.531 30.9426 167.984 29.8759C167.438 28.7959 167.164 27.5426 167.164 26.1159C167.164 24.6759 167.444 23.4093 168.004 22.3159C168.578 21.2093 169.384 20.3493 170.424 19.7359C171.478 19.1093 172.724 18.7959 174.164 18.7959C175.804 18.7959 177.164 19.1893 178.244 19.9759C179.324 20.7626 180.024 21.8493 180.344 23.2359H177.484C177.271 22.5826 176.884 22.0759 176.324 21.7159C175.764 21.3426 175.044 21.1559 174.164 21.1559C172.764 21.1559 171.684 21.6026 170.924 22.4959C170.164 23.3759 169.784 24.5893 169.784 26.1359C169.784 27.6826 170.158 28.8826 170.904 29.7359C171.664 30.5759 172.691 30.9959 173.984 30.9959C175.251 30.9959 176.204 30.6559 176.844 29.9759C177.498 29.2826 177.891 28.3759 178.024 27.2559H174.484V25.3359H180.604V33.0359H178.244L178.044 31.1959C177.591 31.8626 177.024 32.3759 176.344 32.7359C175.664 33.0959 174.798 33.2759 173.744 33.2759ZM184.413 21.5759C183.946 21.5759 183.56 21.4359 183.253 21.1559C182.96 20.8759 182.813 20.5226 182.813 20.0959C182.813 19.6693 182.96 19.3226 183.253 19.0559C183.56 18.7759 183.946 18.6359 184.413 18.6359C184.88 18.6359 185.26 18.7759 185.553 19.0559C185.86 19.3226 186.013 19.6693 186.013 20.0959C186.013 20.5226 185.86 20.8759 185.553 21.1559C185.26 21.4359 184.88 21.5759 184.413 21.5759ZM183.133 33.0359V23.1159H185.693V33.0359H183.133ZM192.565 30.0759C192.085 30.0759 191.639 30.0226 191.225 29.9159L190.485 30.6559C190.712 30.7759 191.019 30.8759 191.405 30.9559C191.792 31.0359 192.419 31.1159 193.285 31.1959C194.605 31.3159 195.565 31.6293 196.165 32.1359C196.765 32.6426 197.065 33.3426 197.065 34.2359C197.065 34.8226 196.905 35.3759 196.585 35.8959C196.265 36.4293 195.772 36.8559 195.105 37.176C194.439 37.5093 193.585 37.6759 192.545 37.6759C191.132 37.6759 189.992 37.4093 189.125 36.8759C188.259 36.3559 187.825 35.5693 187.825 34.5159C187.825 33.6226 188.259 32.8493 189.125 32.1959C188.859 32.0759 188.625 31.9493 188.425 31.8159C188.239 31.6826 188.072 31.5426 187.925 31.3959V30.9359L189.665 29.0959C188.892 28.4159 188.505 27.5426 188.505 26.4759C188.505 25.8093 188.665 25.2026 188.985 24.6559C189.319 24.1093 189.785 23.6759 190.385 23.3559C190.985 23.0359 191.712 22.8759 192.565 22.8759C193.125 22.8759 193.645 22.9559 194.125 23.1159H197.885V24.6759L196.185 24.7959C196.452 25.3026 196.585 25.8626 196.585 26.4759C196.585 27.1426 196.425 27.7493 196.105 28.2959C195.785 28.8426 195.319 29.2759 194.705 29.5959C194.105 29.9159 193.392 30.0759 192.565 30.0759ZM192.565 28.1159C193.085 28.1159 193.512 27.9759 193.845 27.6959C194.192 27.4159 194.365 27.0159 194.365 26.4959C194.365 25.9759 194.192 25.5759 193.845 25.2959C193.512 25.0159 193.085 24.8759 192.565 24.8759C192.019 24.8759 191.579 25.0159 191.245 25.2959C190.912 25.5759 190.745 25.9759 190.745 26.4959C190.745 27.0159 190.912 27.4159 191.245 27.6959C191.579 27.9759 192.019 28.1159 192.565 28.1159ZM190.165 34.2559C190.165 34.7493 190.392 35.1159 190.845 35.3559C191.312 35.6093 191.879 35.7359 192.545 35.7359C193.185 35.7359 193.705 35.6026 194.105 35.3359C194.505 35.0826 194.705 34.7359 194.705 34.2959C194.705 33.9359 194.572 33.6359 194.305 33.3959C194.052 33.1559 193.539 33.0093 192.765 32.9559C192.219 32.9159 191.712 32.8559 191.245 32.7759C190.859 32.9893 190.579 33.2226 190.405 33.4759C190.245 33.7293 190.165 33.9893 190.165 34.2559Z" fill="black"/>
</svg>
